<svg width="324" height="44" viewBox="0 0 324 44" fill="none" xmlns="http://www.w3.org/2000/svg">
<rect x="296.215" y="15" width="7" height="21" fill="white"/>
<rect x="306.215" y="9" width="7" height="27" fill="white"/>
<rect x="316.215" y="21" width="7" height="15" fill="white"/>
<path d="M5.46875 36.1562C4.34896 36.0521 3.04036 36 1.54297 36H0L8.49609 12.1914C8.8737 11.1237 9.0625 10.5052 9.0625 10.3359C9.0625 10.1536 9.05599 10.043 9.04297 10.0039L9.0625 9.96484C9.90885 10.0039 10.8073 10.0234 11.7578 10.0234C12.5391 10.0234 13.4766 10.0104 14.5703 9.98438L14.5898 10.0234C14.5638 10.0755 14.5508 10.1471 14.5508 10.2383C14.5508 10.4857 14.7461 11.1432 15.1367 12.2109L23.8086 36.0586C23.5482 36.0456 23.2422 36.0391 22.8906 36.0391C22.8906 36.0391 22.5521 36.026 21.875 36C21.5495 36 21.2565 36 20.9961 36H17.9688L16.1328 30.375H7.30469L5.46875 36.1562ZM14.6094 25.6875L11.6602 16.6055L8.78906 25.6875H14.6094ZM31.5625 35.5898V41.332C31.5625 42.4518 31.5885 43.181 31.6406 43.5195H26.7773V15.5898H31.5625V16.8594C33.138 15.7526 34.6484 15.1992 36.0938 15.1992C37.5391 15.1992 38.8216 15.401 39.9414 15.8047C41.0612 16.2083 42.0443 16.8333 42.8906 17.6797C44.7526 19.5156 45.6836 22.1328 45.6836 25.5312C45.6836 27.7839 45.1562 29.7956 44.1016 31.5664C43.2031 33.0638 41.9596 34.2617 40.3711 35.1602C38.9648 35.9544 37.4414 36.3516 35.8008 36.3516C34.1602 36.3516 32.7474 36.0977 31.5625 35.5898ZM31.5625 30.668C32.5521 31.5013 33.8346 31.918 35.4102 31.918C37.9883 31.918 39.6549 30.6745 40.4102 28.1875C40.6706 27.3411 40.8008 26.4362 40.8008 25.4727C40.8008 24.4961 40.7096 23.7214 40.5273 23.1484C40.3451 22.5625 40.1042 22.0612 39.8047 21.6445C39.5182 21.2148 39.1927 20.8633 38.8281 20.5898C38.4635 20.3034 38.0924 20.0755 37.7148 19.9062C37.0508 19.6068 36.3672 19.457 35.6641 19.457C34.9609 19.457 34.2318 19.6198 33.4766 19.9453C32.7214 20.2708 32.0833 20.707 31.5625 21.2539V30.668ZM54.8828 35.5898V41.332C54.8828 42.4518 54.9089 43.181 54.9609 43.5195H50.0977V15.5898H54.8828V16.8594C56.4583 15.7526 57.9688 15.1992 59.4141 15.1992C60.8594 15.1992 62.1419 15.401 63.2617 15.8047C64.3815 16.2083 65.3646 16.8333 66.2109 17.6797C68.0729 19.5156 69.0039 22.1328 69.0039 25.5312C69.0039 27.7839 68.4766 29.7956 67.4219 31.5664C66.5234 33.0638 65.2799 34.2617 63.6914 35.1602C62.2852 35.9544 60.7617 36.3516 59.1211 36.3516C57.4805 36.3516 56.0677 36.0977 54.8828 35.5898ZM54.8828 30.668C55.8724 31.5013 57.1549 31.918 58.7305 31.918C61.3086 31.918 62.9753 30.6745 63.7305 28.1875C63.9909 27.3411 64.1211 26.4362 64.1211 25.4727C64.1211 24.4961 64.0299 23.7214 63.8477 23.1484C63.6654 22.5625 63.4245 22.0612 63.125 21.6445C62.8385 21.2148 62.513 20.8633 62.1484 20.5898C61.7839 20.3034 61.4128 20.0755 61.0352 19.9062C60.3711 19.6068 59.6875 19.457 58.9844 19.457C58.2812 19.457 57.5521 19.6198 56.7969 19.9453C56.0417 20.2708 55.4036 20.707 54.8828 21.2539V30.668ZM77.6562 33.8125C77.6562 34.9323 77.6823 35.6615 77.7344 36H72.7734V6.89844H77.6562V33.8125ZM82.5391 9.76953C83.5807 8.14193 84.668 6.70964 85.8008 5.47266L90 8.77344C89.4401 9.46354 88.9193 10.1406 88.4375 10.8047C88.4375 10.8047 87.9362 11.5143 86.9336 12.9336L82.5391 9.76953ZM87.6758 33.8125C87.6758 34.9323 87.7018 35.6615 87.7539 36H82.793V15.5898H87.6758V33.8125ZM92.2266 25.9609C92.2266 24.4375 92.487 23.0247 93.0078 21.7227C93.5286 20.4206 94.2643 19.2812 95.2148 18.3047C97.2461 16.2344 99.9023 15.1992 103.184 15.1992C105.957 15.1992 108.184 16.1172 109.863 17.9531C111.517 19.724 112.344 21.9505 112.344 24.6328C112.344 25.6615 112.266 26.3646 112.109 26.7422C110.807 27.1068 108.158 27.2891 104.16 27.2891H97.2852C97.6237 28.6823 98.4115 29.7695 99.6484 30.5508C100.885 31.319 102.493 31.7031 104.473 31.7031C106.543 31.7031 108.32 31.332 109.805 30.5898C110.195 30.3945 110.488 30.2122 110.684 30.043C110.658 30.5898 110.625 31.1497 110.586 31.7227L110.371 34.7695C109.382 35.4466 107.78 35.9154 105.566 36.1758C104.915 36.2539 104.29 36.293 103.691 36.293C100.384 36.293 97.6497 35.3294 95.4883 33.4023C93.3138 31.4622 92.2266 28.9818 92.2266 25.9609ZM107.148 23.5C106.615 20.7005 105.091 19.3008 102.578 19.3008C100.599 19.3008 99.0951 20.1536 98.0664 21.8594C97.7539 22.3802 97.513 22.9531 97.3438 23.5781C97.6562 23.5911 98.0404 23.6042 98.4961 23.6172H99.9414C100.423 23.6302 100.885 23.6367 101.328 23.6367H102.441C103.105 23.6367 103.757 23.6302 104.395 23.6172L105.996 23.5586C106.426 23.5456 106.81 23.526 107.148 23.5ZM130.605 34.9062C128.952 35.8307 127.298 36.293 125.645 36.293C123.991 36.293 122.546 36.0326 121.309 35.5117C120.072 34.9909 119.017 34.2747 118.145 33.3633C116.348 31.4883 115.449 29.0534 115.449 26.0586C115.449 22.9596 116.491 20.3815 118.574 18.3242C120.671 16.2409 123.353 15.1992 126.621 15.1992C127.624 15.1992 128.607 15.3294 129.57 15.5898V6.89844H134.355V27.7773C134.355 29.5091 134.434 30.6419 134.59 31.1758C134.759 31.7096 134.941 32.1003 135.137 32.3477C135.345 32.5951 135.605 32.8294 135.918 33.0508L132.246 36.293C131.569 35.9284 131.022 35.4661 130.605 34.9062ZM126.562 31.8008C127.656 31.8008 128.659 31.5924 129.57 31.1758V20.3555C128.659 19.9779 127.669 19.7891 126.602 19.7891C125.534 19.7891 124.616 19.9323 123.848 20.2188C123.092 20.5052 122.441 20.9023 121.895 21.4102C120.749 22.4779 120.176 23.8646 120.176 25.5703C120.176 27.4323 120.697 28.9167 121.738 30.0234C122.858 31.2083 124.466 31.8008 126.562 31.8008ZM165.41 9.53516C167.845 9.53516 169.922 9.95833 171.641 10.8047V16.7812L171.602 16.8203C170.872 15.7005 169.336 14.9583 166.992 14.5938C166.302 14.4766 165.43 14.418 164.375 14.418C163.32 14.418 162.285 14.6198 161.27 15.0234C160.254 15.4141 159.421 15.974 158.77 16.7031C157.507 18.1224 156.875 20.1471 156.875 22.7773C156.875 25.8372 157.676 28.1159 159.277 29.6133C160.605 30.8633 162.363 31.4883 164.551 31.4883C167.025 31.4883 169.03 30.9609 170.566 29.9062C171.126 29.5286 171.602 29.0599 171.992 28.5L172.051 28.5391V34.0078C170.059 35.6615 167.376 36.4883 164.004 36.4883C160.033 36.4883 156.921 35.2253 154.668 32.6992C152.507 30.2904 151.426 27.1003 151.426 23.1289C151.426 18.9232 152.611 15.6094 154.98 13.1875C157.376 10.7526 160.853 9.53516 165.41 9.53516ZM189.961 34.7891C188.112 35.7917 186.439 36.293 184.941 36.293C183.444 36.293 182.161 36.1562 181.094 35.8828C180.026 35.5964 179.121 35.1797 178.379 34.6328C176.868 33.526 176.113 31.9245 176.113 29.8281C176.113 27.9531 177.038 26.3906 178.887 25.1406C180.892 23.7865 183.613 23.1094 187.051 23.1094L187.832 23.1289C187.988 23.1419 188.164 23.1549 188.359 23.168C188.555 23.168 188.73 23.181 188.887 23.207C188.783 21.1237 187.884 19.9062 186.191 19.5547C185.632 19.4375 185.033 19.3789 184.395 19.3789C183.77 19.3789 183.151 19.4375 182.539 19.5547C181.94 19.6589 181.354 19.8021 180.781 19.9844C179.518 20.388 178.613 20.8503 178.066 21.3711L178.008 21.332L177.422 17.0156C179.727 15.8047 182.246 15.1992 184.98 15.1992C189.225 15.1992 191.94 16.7292 193.125 19.7891C193.503 20.7656 193.691 21.8659 193.691 23.0898V30.1602C193.691 31.6706 194.225 32.6992 195.293 33.2461L191.758 36.4883C191.016 36.0977 190.417 35.5312 189.961 34.7891ZM188.906 26.7227C188.555 26.6576 188.19 26.625 187.812 26.625H187.031C184.154 26.625 182.324 27.263 181.543 28.5391C181.309 28.9167 181.191 29.3138 181.191 29.7305C181.191 30.1471 181.263 30.5182 181.406 30.8438C181.562 31.1562 181.816 31.4167 182.168 31.625C182.845 32.0156 183.848 32.2109 185.176 32.2109C186.517 32.2109 187.767 31.8919 188.926 31.2539C188.913 31.1107 188.906 30.9609 188.906 30.8047V26.7227ZM204.883 35.5898V41.332C204.883 42.4518 204.909 43.181 204.961 43.5195H200.098V15.5898H204.883V16.8594C206.458 15.7526 207.969 15.1992 209.414 15.1992C210.859 15.1992 212.142 15.401 213.262 15.8047C214.382 16.2083 215.365 16.8333 216.211 17.6797C218.073 19.5156 219.004 22.1328 219.004 25.5312C219.004 27.7839 218.477 29.7956 217.422 31.5664C216.523 33.0638 215.28 34.2617 213.691 35.1602C212.285 35.9544 210.762 36.3516 209.121 36.3516C207.48 36.3516 206.068 36.0977 204.883 35.5898ZM204.883 30.668C205.872 31.5013 207.155 31.918 208.73 31.918C211.309 31.918 212.975 30.6745 213.73 28.1875C213.991 27.3411 214.121 26.4362 214.121 25.4727C214.121 24.4961 214.03 23.7214 213.848 23.1484C213.665 22.5625 213.424 22.0612 213.125 21.6445C212.839 21.2148 212.513 20.8633 212.148 20.5898C211.784 20.3034 211.413 20.0755 211.035 19.9062C210.371 19.6068 209.688 19.457 208.984 19.457C208.281 19.457 207.552 19.6198 206.797 19.9453C206.042 20.2708 205.404 20.707 204.883 21.2539V30.668ZM222.5 9.76953C223.542 8.14193 224.629 6.70964 225.762 5.47266L229.961 8.77344C229.401 9.46354 228.88 10.1406 228.398 10.8047C228.398 10.8047 227.897 11.5143 226.895 12.9336L222.5 9.76953ZM227.637 33.8125C227.637 34.9323 227.663 35.6615 227.715 36H222.754V15.5898H227.637V33.8125ZM242.227 31.7031C243.906 31.7031 245.059 31.2669 245.684 30.3945H245.84L245.898 34.9258C245.26 35.5638 244.076 35.987 242.344 36.1953C241.875 36.2604 241.289 36.293 240.586 36.293C239.896 36.293 239.141 36.1628 238.32 35.9023C237.513 35.6419 236.823 35.2188 236.25 34.6328C235.065 33.4219 234.473 31.5273 234.473 28.9492V20.082H231.523C231.51 19.7044 231.504 19.3203 231.504 18.9297V15.9219C231.504 15.7005 231.51 15.5898 231.523 15.5898H234.473V10.0234H239.258V15.5898H244.629V20.082H239.258V28.0508C239.258 30.0951 239.824 31.2604 240.957 31.5469C241.322 31.651 241.745 31.7031 242.227 31.7031ZM263.359 34.7891C261.51 35.7917 259.837 36.293 258.34 36.293C256.842 36.293 255.56 36.1562 254.492 35.8828C253.424 35.5964 252.52 35.1797 251.777 34.6328C250.267 33.526 249.512 31.9245 249.512 29.8281C249.512 27.9531 250.436 26.3906 252.285 25.1406C254.29 23.7865 257.012 23.1094 260.449 23.1094L261.23 23.1289C261.387 23.1419 261.562 23.1549 261.758 23.168C261.953 23.168 262.129 23.181 262.285 23.207C262.181 21.1237 261.283 19.9062 259.59 19.5547C259.03 19.4375 258.431 19.3789 257.793 19.3789C257.168 19.3789 256.549 19.4375 255.938 19.5547C255.339 19.6589 254.753 19.8021 254.18 19.9844C252.917 20.388 252.012 20.8503 251.465 21.3711L251.406 21.332L250.82 17.0156C253.125 15.8047 255.645 15.1992 258.379 15.1992C262.624 15.1992 265.339 16.7292 266.523 19.7891C266.901 20.7656 267.09 21.8659 267.09 23.0898V30.1602C267.09 31.6706 267.624 32.6992 268.691 33.2461L265.156 36.4883C264.414 36.0977 263.815 35.5312 263.359 34.7891ZM262.305 26.7227C261.953 26.6576 261.589 26.625 261.211 26.625H260.43C257.552 26.625 255.723 27.263 254.941 28.5391C254.707 28.9167 254.59 29.3138 254.59 29.7305C254.59 30.1471 254.661 30.5182 254.805 30.8438C254.961 31.1562 255.215 31.4167 255.566 31.625C256.243 32.0156 257.246 32.2109 258.574 32.2109C259.915 32.2109 261.165 31.8919 262.324 31.2539C262.311 31.1107 262.305 30.9609 262.305 30.8047V26.7227ZM277.734 33.8125C277.734 34.9323 277.76 35.6615 277.812 36H272.852V6.89844H277.734V33.8125Z" fill="white"/>
</svg>
